<svg width="82" height="100" viewBox="0 0 82 100" fill="none" xmlns="http://www.w3.org/2000/svg">
<path d="M74.2407 100C73.0736 99.9991 71.9219 99.746 70.8713 99.2589C69.8202 98.7719 68.8972 98.0634 68.1709 97.1866C65.9233 94.8567 48.5529 78.4768 37.9087 68.4902C37.172 67.8085 36.5831 66.9937 36.1759 66.0924C35.7687 65.1915 35.5511 64.2219 35.5359 63.2397C35.5206 62.2576 35.7079 61.2821 36.0869 60.3696C36.466 59.4571 37.0293 58.6259 37.7444 57.9232C38.4595 57.221 39.3124 56.6612 40.2538 56.2763C41.1952 55.8915 42.2066 55.6897 43.2297 55.6817C44.2529 55.6737 45.2675 55.8603 46.2152 56.2304C47.163 56.6009 48.025 57.1473 48.7518 57.8388C48.8277 57.9103 56.4938 65.1036 64.1026 72.2893L66.4866 74.5415V39.563C66.4866 25.9603 55.0537 14.8935 41 14.8935C26.9464 14.8935 15.5135 25.9603 15.5135 39.563V92.5527C15.5135 94.5277 14.6963 96.4219 13.2416 97.8183C11.7869 99.2147 9.81396 99.9991 7.75673 99.9991C5.69951 99.9991 3.72657 99.2147 2.2719 97.8183C0.817228 96.4219 0 94.5277 0 92.5527V39.563C0 17.7478 18.3925 0 41 0C63.6073 0 82 17.7478 82 39.563V92.5527C81.9991 94.5277 81.1814 96.4219 79.7264 97.8187C78.2713 99.2152 76.2982 99.9996 74.2407 100ZM67.1888 95.6469L67.192 95.6536L67.1888 95.6469Z" fill="url(#paint0_linear_102_7)"/>
<path d="M41.0004 46.721C45.8964 46.721 49.8653 42.9108 49.8653 38.2104C49.8653 33.5101 45.8964 29.6998 41.0004 29.6998C36.1044 29.6998 32.1354 33.5101 32.1354 38.2104C32.1354 42.9108 36.1044 46.721 41.0004 46.721Z" fill="url(#paint1_linear_102_7)"/>
<defs>
<linearGradient id="paint0_linear_102_7" x1="41" y1="101.2" x2="41" y2="0.299996" gradientUnits="userSpaceOnUse">
<stop stop-color="#FFA02B"/>
<stop offset="1" stop-color="#C71BDB"/>
</linearGradient>
<linearGradient id="paint1_linear_102_7" x1="41.0004" y1="101.173" x2="41.0004" y2="0.286796" gradientUnits="userSpaceOnUse">
<stop stop-color="#FF5968"/>
<stop offset="1" stop-color="#C71BDB"/>
</linearGradient>
</defs>
</svg>
